<svg width="887" height="785" viewBox="0 0 887 785" fill="none" xmlns="http://www.w3.org/2000/svg">
<path fill-rule="evenodd" clip-rule="evenodd" d="M219.325 562.841C168.271 547.401 317.65 481.984 285.513 441.907C252.298 400.485 33.8519 393.893 50.7086 352.561C66.6208 313.546 127.981 312.73 162.835 286.467C194.244 262.799 203.447 219.671 243.572 207.232C289.366 193.035 396.124 268.367 445.662 289.614C496.988 311.628 844.487 281.128 869.295 326.279C893.008 369.436 807.089 442.081 806.568 486.501C806.007 534.355 614.46 574.033 573.435 599.965C531.45 626.504 400.468 575.615 343.83 570.007C301.109 565.777 261.518 575.6 219.325 562.841Z" fill="#ED7373" fill-opacity="0.23"/>
</svg>
