<svg width="1011" height="537" viewBox="0 0 1011 537" fill="none" xmlns="http://www.w3.org/2000/svg">
<path fill-rule="evenodd" clip-rule="evenodd" d="M839.258 60.9706C898.939 81.6998 704.902 168.379 737.138 221.871C770.456 277.158 1036.25 286.627 1008.4 341.636C982.101 393.562 906.972 394.456 859.767 429.335C817.227 460.767 798.408 518.193 747.189 534.638C688.733 553.407 571.494 452.714 514.687 424.253C455.828 394.765 25.8078 434.305 3.41801 374.076C-17.9829 316.508 99.7705 220.001 108.206 160.825C117.294 97.0757 358.344 44.8194 413.032 10.4014C469 -24.822 620.134 43.383 688.364 51.0323C739.829 56.8021 789.937 43.8397 839.258 60.9706Z" fill="#ED7373" fill-opacity="0.23"/>
</svg>
