<svg width="31" height="31" viewBox="0 0 31 31" fill="none" xmlns="http://www.w3.org/2000/svg">
<path fill-rule="evenodd" clip-rule="evenodd" d="M3.875 15.5C3.875 21.2479 8.07292 26.0271 13.5625 26.9958L13.6273 26.944C13.6057 26.9398 13.5841 26.9356 13.5625 26.9313V18.7292H10.6562V15.5H13.5625V12.9167C13.5625 10.0104 15.4354 8.39583 18.0833 8.39583C18.9229 8.39583 19.8271 8.525 20.6667 8.65417V11.625H19.1813C17.7604 11.625 17.4375 12.3354 17.4375 13.2396V15.5H20.5375L20.0208 18.7292H17.4375V26.9313C17.4159 26.9356 17.3943 26.9398 17.3727 26.944L17.4375 26.9958C22.9271 26.0271 27.125 21.2479 27.125 15.5C27.125 9.10625 21.8937 3.875 15.5 3.875C9.10625 3.875 3.875 9.10625 3.875 15.5Z" fill="black"/>
</svg>
