<svg width="31" height="31" viewBox="0 0 31 31" fill="none" xmlns="http://www.w3.org/2000/svg">
<path d="M15.5004 4.22705C12.439 4.22705 12.0548 4.24044 10.8524 4.29516C9.65236 4.35011 8.83323 4.5401 8.11649 4.81887C7.3751 5.10679 6.74619 5.49194 6.11964 6.11875C5.49261 6.74533 5.10747 7.37425 4.81862 8.11544C4.53915 8.83243 4.34893 9.65181 4.29492 10.8514C4.24114 12.0538 4.22705 12.4383 4.22705 15.4998C4.22705 18.5613 4.24067 18.9443 4.29515 20.1467C4.35034 21.3468 4.54033 22.1659 4.81885 22.8827C5.107 23.6241 5.49214 24.253 6.11893 24.8796C6.74525 25.5067 7.37416 25.8928 8.11508 26.1807C8.83229 26.4594 9.65165 26.6494 10.8515 26.7044C12.0538 26.7591 12.4378 26.7725 15.499 26.7725C18.5606 26.7725 18.9436 26.7591 20.146 26.7044C21.346 26.6494 22.1661 26.4594 22.8833 26.1807C23.6245 25.8928 24.2524 25.5067 24.8788 24.8796C25.5058 24.253 25.8909 23.6241 26.1798 22.8829C26.4569 22.1659 26.6471 21.3466 26.7035 20.147C26.7575 18.9445 26.7716 18.5613 26.7716 15.4998C26.7716 12.4383 26.7575 12.0541 26.7035 10.8517C26.6471 9.65158 26.4569 8.83243 26.1798 8.11567C25.8909 7.37425 25.5058 6.74533 24.8788 6.11875C24.2517 5.49171 23.6247 5.10656 22.8826 4.81887C22.164 4.5401 21.3444 4.35011 20.1444 4.29516C18.942 4.24044 18.5592 4.22705 15.4969 4.22705H15.5004ZM14.4891 6.25849C14.7893 6.25802 15.1242 6.25849 15.5004 6.25849C18.5101 6.25849 18.8668 6.26929 20.0554 6.32331C21.1544 6.37357 21.7509 6.55722 22.1483 6.71151C22.6743 6.91583 23.0494 7.16007 23.4437 7.55462C23.8382 7.94916 24.0824 8.32492 24.2872 8.85098C24.4415 9.24788 24.6254 9.84439 24.6754 10.9435C24.7294 12.1318 24.7411 12.4888 24.7411 15.4972C24.7411 18.5056 24.7294 18.8626 24.6754 20.0509C24.6251 21.15 24.4415 21.7465 24.2872 22.1434C24.0829 22.6695 23.8382 23.044 23.4437 23.4384C23.0491 23.8329 22.6745 24.0771 22.1483 24.2815C21.7514 24.4365 21.1544 24.6196 20.0554 24.6699C18.8671 24.7239 18.5101 24.7357 15.5004 24.7357C12.4904 24.7357 12.1337 24.7239 10.9454 24.6699C9.84634 24.6192 9.24984 24.4355 8.85225 24.2812C8.32621 24.0769 7.95046 23.8327 7.55593 23.4381C7.16139 23.0436 6.91716 22.6688 6.71238 22.1425C6.55809 21.7456 6.37421 21.1491 6.32418 20.05C6.27017 18.8616 6.25937 18.5047 6.25937 15.4944C6.25937 12.4841 6.27017 12.129 6.32418 10.9407C6.37444 9.84157 6.55809 9.24506 6.71238 8.84769C6.91669 8.32163 7.16139 7.94588 7.55593 7.55133C7.95046 7.15678 8.32621 6.91254 8.85225 6.70775C9.2496 6.55275 9.84634 6.36957 10.9454 6.31908C11.9853 6.27211 12.3883 6.25802 14.4891 6.25567V6.25849ZM21.5175 8.13023C20.7707 8.13023 20.1648 8.73544 20.1648 9.48249C20.1648 10.2293 20.7707 10.8352 21.5175 10.8352C22.2643 10.8352 22.8702 10.2293 22.8702 9.48249C22.8702 8.73567 22.2643 8.12976 21.5175 8.12976V8.13023ZM15.5004 9.71076C12.3035 9.71076 9.71154 12.3028 9.71154 15.4998C9.71154 18.6968 12.3035 21.2876 15.5004 21.2876C18.6973 21.2876 21.2883 18.6968 21.2883 15.4998C21.2883 12.3028 18.697 9.71076 15.5001 9.71076H15.5004ZM15.5004 11.7422C17.5754 11.7422 19.2578 13.4244 19.2578 15.4998C19.2578 17.5749 17.5754 19.2574 15.5004 19.2574C13.4251 19.2574 11.7429 17.5749 11.7429 15.4998C11.7429 13.4244 13.4251 11.7422 15.5004 11.7422Z" fill="black"/>
</svg>
