<svg width="423" height="93" viewBox="0 0 423 93" fill="none" xmlns="http://www.w3.org/2000/svg">
<path fill-rule="evenodd" clip-rule="evenodd" d="M290.133 3.18789C319.686 5.61479 352.346 8.32467 377.62 17.0548C403.743 26.078 422.301 38.7799 422.747 48.9939C423.168 58.6355 391.906 60.3146 379.818 67.3895C368.926 73.7652 373.688 84.22 355.862 88.1427C335.517 92.6195 306.915 93.886 276.862 90.0446C245.724 86.0646 31.7096 85.1602 9.07469 75.0488C-12.5605 65.3841 15.4995 46.069 6.00396 35.5177C-4.22556 24.1508 119.618 10.5426 134.94 3.39695C150.621 -3.91592 194.507 4.54294 224.761 4.50218C247.581 4.47144 265.709 1.18225 290.133 3.18789Z" fill="#043CAA" fill-opacity="0.3"/>
</svg>
