<svg width="882" height="462" viewBox="0 0 882 462" fill="none" xmlns="http://www.w3.org/2000/svg">
<path fill-rule="evenodd" clip-rule="evenodd" d="M161.06 416.977C109.738 398.985 53.0896 378.974 25.3227 333.012C-3.37621 285.508 -8.51625 222.852 15.3703 175.82C37.9185 131.424 102.497 130.946 143.037 101.238C179.57 74.4664 195.685 25.3289 239.694 11.4329C289.922 -4.42646 348.352 -3.62417 397.214 20.9823C447.839 46.4771 859.89 100.176 879.2 151.873C897.658 201.287 796.542 283.535 789.354 334.212C781.611 388.805 508.927 422.66 461.955 451.944C413.883 481.913 349.435 432.889 290.777 426.072C246.533 420.931 203.474 431.847 161.06 416.977Z" fill="#043CAA" fill-opacity="0.3"/>
</svg>
