<svg width="946" height="281" viewBox="0 0 946 281" fill="none" xmlns="http://www.w3.org/2000/svg">
<path fill-rule="evenodd" clip-rule="evenodd" d="M285.861 279.878C220.494 275.71 363.339 204.865 308.904 179.447C252.642 153.175 -1.00977 179.994 0.248633 146.508C1.43656 114.899 71.5183 105.363 100.032 80.5733C125.729 58.2335 117.414 24.512 158.031 9.33647C204.386 -7.98318 359.916 33.0546 426.083 41.8037C494.64 50.8687 880.202 -22.5702 928.445 7.72408C974.557 36.6804 907.726 103.722 926.572 137.152C946.876 173.166 744.356 230.815 708.613 256.253C672.033 282.287 499.396 263.126 431.923 267.152C381.03 270.188 339.881 283.322 285.861 279.878Z" fill="#043CAA" fill-opacity="0.3"/>
</svg>
